<?xml version="1.0" encoding="utf-8"?>
<!-- Generator: Adobe Illustrator 25.0.0, SVG Export Plug-In . SVG Version: 6.00 Build 0)  -->
<svg version="1.1" id="Layer_1" xmlns="http://www.w3.org/2000/svg" xmlns:xlink="http://www.w3.org/1999/xlink" x="0px" y="0px"
	 viewBox="0 0 87.3 76.9" style="enable-background:new 0 0 87.3 76.9;" xml:space="preserve">
<style type="text/css">
	.st0{fill:#5CBF8E;}
</style>
<g>
	<g>
		<g>
			<polygon class="st0" points="0,77.1 17.7,77.1 0,59.4 			"/>
		</g>
		<g>
			<polygon class="st0" points="55.6,77.1 73.2,77.1 73.2,59.4 			"/>
		</g>
		<g>
			<polygon class="st0" points="57.9,15.3 36.6,36.6 15.3,15.3 0,0 0,26.2 0,30.2 36.6,66.8 73.2,30.2 73.2,26.2 73.2,0 			"/>
		</g>
	</g>
</g>
<g id="Page-1">
	<g id="_x30_24---Registered-Trademark">
		<path class="st0" d="M82,0c-2.9,0-5.3,2.4-5.3,5.3s2.4,5.3,5.3,5.3s5.3-2.4,5.3-5.3S84.9,0,82,0z M82,9.6c-2.3,0-4.2-1.9-4.2-4.2
			s1.9-4.2,4.2-4.2c2.3,0,4.2,1.9,4.2,4.2S84.3,9.6,82,9.6z"/>
		<path id="Shape" class="st0" d="M84.4,7.6l-1-1.9c0.2-0.1,0.3-0.2,0.5-0.3C84.2,5,84.4,4.5,84.4,4c-0.1-0.9-0.9-1.6-1.8-1.6h-2.2
			c-0.1,0-0.2,0.1-0.2,0.2v5.1c0,0.1,0.1,0.2,0.2,0.2h0.9c0.1,0,0.2-0.1,0.2-0.2V5.9h0.6l1,1.9c0,0.1,0.1,0.1,0.2,0.1h1
			c0.1,0,0.1,0,0.2-0.1C84.4,7.8,84.4,7.7,84.4,7.6L84.4,7.6z M82.6,4.8h-1.2V3.5h1.2c0.4,0,0.6,0.3,0.6,0.6S83,4.8,82.6,4.8z"/>
	</g>
</g>
</svg>
